<svg width="282" height="51" viewBox="0 0 282 51" fill="none" xmlns="http://www.w3.org/2000/svg">
<path d="M282 19.4827V42.593H274.862V40.0959C273.275 42.169 271.061 43.2055 268.218 43.2055C265.156 43.2055 262.596 42.0355 260.538 39.6954C258.497 37.3396 257.476 34.442 257.476 31.0025C257.476 28.7567 257.939 26.7071 258.866 24.8539C259.792 23.0007 261.08 21.5401 262.729 20.4722C264.378 19.3885 266.216 18.8467 268.242 18.8467C271.053 18.8467 273.26 19.8911 274.862 21.9799V19.4827H282ZM269.985 25.7256C268.524 25.7256 267.339 26.2281 266.428 27.2333C265.517 28.2384 265.061 29.5027 265.061 31.0261C265.061 32.5495 265.517 33.8138 266.428 34.8189C267.339 35.824 268.524 36.3266 269.985 36.3266C271.43 36.3266 272.616 35.8319 273.542 34.8425C274.469 33.8373 274.932 32.5652 274.932 31.0261C274.932 29.487 274.469 28.2227 273.542 27.2333C272.616 26.2281 271.43 25.7256 269.985 25.7256Z" fill="#121212"/>
<path d="M254.502 19.4818V42.5921H247.128V19.4818H254.502ZM247.646 9.2106C248.494 8.36252 249.539 7.93848 250.78 7.93848C252.02 7.93848 253.065 8.37037 253.913 9.23416C254.761 10.0822 255.185 11.1266 255.185 12.3674C255.185 13.6081 254.761 14.6525 253.913 15.5005C253.065 16.3329 252.02 16.7491 250.78 16.7491C249.539 16.7491 248.494 16.3329 247.646 15.5005C246.798 14.6525 246.374 13.6081 246.374 12.3674C246.374 11.1109 246.798 10.0587 247.646 9.2106Z" fill="#121212"/>
<path d="M234.424 18.8467C237.079 18.8467 239.175 19.6162 240.714 21.1553C242.269 22.6788 243.047 24.7676 243.047 27.4217V42.593H235.673V30.0367C235.673 28.6703 235.351 27.6181 234.707 26.8799C234.063 26.1418 233.16 25.7727 231.998 25.7727C230.914 25.7727 230.019 26.1496 229.312 26.9035C228.606 27.6416 228.252 28.7253 228.252 30.1544V42.593H220.879V30.0367C220.879 28.6703 220.557 27.6181 219.913 26.8799C219.269 26.1418 218.374 25.7727 217.227 25.7727C216.144 25.7727 215.248 26.1496 214.542 26.9035C213.835 27.6416 213.482 28.7253 213.482 30.1544V42.593H206.108V19.4827H213.175V22.3804C214.589 20.0246 216.882 18.8467 220.054 18.8467C221.578 18.8467 222.952 19.1843 224.177 19.8597C225.417 20.535 226.391 21.4852 227.098 22.7102C228.606 20.1345 231.048 18.8467 234.424 18.8467Z" fill="#121212"/>
<path d="M191.541 18.8467C194.964 18.8467 197.744 19.9775 199.88 22.239C202.016 24.4849 203.092 27.4139 203.108 31.0261C203.108 32.0626 203.061 32.8243 202.966 33.3112H187.3C187.897 35.7769 189.546 37.0098 192.247 37.0098C194.116 37.0098 195.797 36.3345 197.289 34.9838L202.048 39.4127C199.519 41.9412 196.127 43.2055 191.871 43.2055C188.243 43.2055 185.306 42.0983 183.06 39.8838C180.814 37.6694 179.691 34.7639 179.691 31.1674C179.691 27.5238 180.791 24.5634 182.989 22.2861C185.188 19.9932 188.038 18.8467 191.541 18.8467ZM191.564 25.1131C189.318 25.1131 187.905 26.291 187.324 28.6467H195.734C195.137 26.291 193.747 25.1131 191.564 25.1131Z" fill="#121212"/>
<path d="M162.965 18.845C165.635 18.845 167.763 19.7951 169.349 21.6955V8.66797H176.699V42.5913H169.584V40.0941C167.998 42.1672 165.784 43.2038 162.941 43.2038C159.879 43.2038 157.319 42.0337 155.261 39.6937C153.22 37.3379 152.199 34.4403 152.199 31.0008C152.199 28.755 152.662 26.7054 153.589 24.8522C154.515 22.999 155.803 21.5384 157.452 20.4705C159.101 19.3868 160.939 18.845 162.965 18.845ZM164.708 25.7239C163.247 25.7239 162.062 26.2264 161.151 27.2316C160.24 28.2367 159.784 29.501 159.784 31.0244C159.784 32.5478 160.24 33.8121 161.151 34.8172C162.062 35.8223 163.247 36.3249 164.708 36.3249C166.153 36.3249 167.339 35.8302 168.265 34.8407C169.192 33.8356 169.655 32.5635 169.655 31.0244C169.655 29.4853 169.192 28.221 168.265 27.2316C167.339 26.2264 166.153 25.7239 164.708 25.7239Z" fill="#121212"/>
<path d="M149.229 19.4827V42.593H142.091V40.0959C140.505 42.169 138.29 43.2055 135.448 43.2055C132.385 43.2055 129.825 42.0355 127.768 39.6954C125.726 37.3396 124.705 34.442 124.705 31.0025C124.705 28.7567 125.169 26.7071 126.095 24.8539C127.022 23.0007 128.31 21.5401 129.959 20.4722C131.608 19.3885 133.445 18.8467 135.471 18.8467C138.282 18.8467 140.489 19.8911 142.091 21.9799V19.4827H149.229ZM137.215 25.7256C135.754 25.7256 134.568 26.2281 133.657 27.2333C132.746 28.2384 132.291 29.5027 132.291 31.0261C132.291 32.5495 132.746 33.8138 133.657 34.8189C134.568 35.824 135.754 36.3266 137.215 36.3266C138.659 36.3266 139.845 35.8319 140.772 34.8425C141.698 33.8373 142.162 32.5652 142.162 31.0261C142.162 29.487 141.698 28.2227 140.772 27.2333C139.845 26.2281 138.659 25.7256 137.215 25.7256Z" fill="#121212"/>
<path d="M114.138 18.8467C116.242 18.8467 118.127 19.2864 119.792 20.1659C121.472 21.0454 122.878 22.294 124.008 23.9116L118.237 27.94C117.09 26.4637 115.669 25.7256 113.973 25.7256C112.638 25.7256 111.507 26.2124 110.58 27.1862C109.67 28.1442 109.214 29.4242 109.214 31.0261C109.214 32.6437 109.662 33.9316 110.557 34.8896C111.468 35.8476 112.591 36.3266 113.926 36.3266C115.653 36.3266 117.106 35.5806 118.284 34.0886L124.032 38.1877C122.901 39.7896 121.496 41.0303 119.815 41.9098C118.135 42.7736 116.242 43.2055 114.138 43.2055C110.463 43.2055 107.463 42.0669 105.139 39.7896C102.83 37.4966 101.676 34.5755 101.676 31.0261C101.676 27.4767 102.83 24.5634 105.139 22.2861C107.463 19.9932 110.463 18.8467 114.138 18.8467Z" fill="#121212"/>
<path d="M89.1676 9.61035L101.818 42.5913H93.4316L90.9344 35.6653H77.8363L75.3391 42.5913H67.1174L79.768 9.61035H89.1676ZM84.3853 17.4316L80.3805 28.5509H88.3902L84.3853 17.4316Z" fill="#121212"/>
<path d="M57.9866 44.3469L33.0051 2.07308C32.2381 0.773538 30.8829 0 29.3845 0C28.7171 0 28.0549 0.157286 27.4668 0.458966C26.7713 0.812215 26.1883 1.35885 25.7817 2.04472L0.565086 44.7079C0.194328 45.3345 0 46.0435 0 46.7552C0 48.9727 1.78731 50.775 3.98629 50.775H4.32892C5.72502 50.775 7.03673 50.0247 7.75012 48.8154L11.4347 42.5729L29.3845 12.2038L47.1042 42.1836H41.484L39.4205 38.664L33.9717 29.4512L33.8464 29.232L29.6044 21.7906L29.3896 21.4115L29.1646 21.7854L16.9219 42.3074L15.8429 44.2025C15.3903 44.9941 15.1934 45.8785 15.2727 46.7629C15.4721 49.05 17.3387 50.775 19.6118 50.775H36.7945L37.0502 50.7776H46.3217V50.775H54.3659C55.0461 50.775 55.6904 50.6229 56.2785 50.3212C57.3166 49.79 58.0965 48.8309 58.4238 47.6886C58.7485 46.5567 58.5926 45.3706 57.9866 44.3469ZM25.6692 42.1836L29.387 35.6678L33.2404 42.1836H25.6692Z" fill="url(#paint0_linear_303_1530)"/>
<defs>
<linearGradient id="paint0_linear_303_1530" x1="5.26671" y1="3.91059" x2="33.1276" y2="52.6054" gradientUnits="userSpaceOnUse">
<stop stop-color="#30C0F9"/>
<stop offset="1" stop-color="#0061FF"/>
</linearGradient>
</defs>
</svg>
