<svg width="18" height="19" viewBox="0 0 18 19" fill="none" xmlns="http://www.w3.org/2000/svg">
<g clip-path="url(#clip0_303_1565)">
<path d="M12.8044 0.5H9.77086V12.7608C9.77086 14.2218 8.60414 15.4218 7.1522 15.4218C5.70025 15.4218 4.53352 14.2218 4.53352 12.7608C4.53352 11.3261 5.67433 10.1522 7.07443 10.1V7.02175C3.98904 7.0739 1.5 9.60435 1.5 12.7608C1.5 15.9435 4.04089 18.5 7.17814 18.5C10.3153 18.5 12.8562 15.9174 12.8562 12.7608V6.4739C13.997 7.3087 15.3971 7.80435 16.875 7.83045V4.75217C14.5934 4.67391 12.8044 2.79565 12.8044 0.5Z" fill="#212121"/>
</g>
<defs>
<clipPath id="clip0_303_1565">
<rect width="18" height="18" fill="white" transform="translate(0 0.5)"/>
</clipPath>
</defs>
</svg>
